<!--?xml version="1.0" encoding="utf-8"?-->
<!-- Generator: Adobe Illustrator 18.1.1, SVG Export Plug-In . SVG Version: 6.00 Build 0)  -->

<svg version="1.1" id="_x32_" xmlns="http://www.w3.org/2000/svg" xmlns:xlink="http://www.w3.org/1999/xlink" x="0px" y="0px" viewBox="0 0 512 512" style="width: 256px; height: 256px; opacity: 1;" xml:space="preserve">
<style type="text/css">
	.st0{fill:#4B4B4B;}
</style>
<g>
	<path class="st0" d="M371.246,351.155c2.61,5.659,0.142,12.367-5.522,14.974l-51.948,23.976
		c-5.658,2.614-12.366,0.145-14.978-5.514l-15.575-33.746c-2.611-5.659-0.142-12.367,5.522-14.973l51.948-23.976
		c5.658-2.605,12.366-0.136,14.976,5.523l1.522,3.295l65.039-30.062c1.094-0.496,2.187-1.002,3.282-1.595
		c1.696-10.752,2.59-21.807,2.59-33.056c0-118.275-95.873-214.052-214.052-214.052C95.778,41.948,0,137.725,0,256
		c0,118.178,95.778,214.052,214.052,214.052c93.488,0,173.032-60.027,202.102-143.66L369.71,347.83L371.246,351.155z
		 M214.018,343.785c-48.501,0-87.814-39.308-87.814-87.814c0-48.506,39.313-87.824,87.814-87.824s87.814,39.318,87.814,87.824
		C301.832,304.477,262.519,343.785,214.018,343.785z" style="fill: rgb(255, 255, 255);"></path>
	<path class="st0" d="M214.018,217.363c-21.316,0-38.589,17.286-38.589,38.598c0,21.332,17.273,38.589,38.589,38.589
		s38.589-17.257,38.589-38.589C252.607,234.65,235.334,217.363,214.018,217.363z" style="fill: rgb(255, 255, 255);"></path>
	<path class="st0" d="M512,77.096h-73.313v89.603h21.574c0,33.348,0,64.616,0,64.616c0,24.287-13.442,46.494-34.748,57.742
		c-1.988,12.844-5.076,25.386-9.359,37.335l18.62-8.565c33.752-15.527,55.355-49.381,55.355-86.512c0,0,0-31.268,0-64.616H512
		V77.096z" style="fill: rgb(255, 255, 255);"></path>
</g>
</svg>
